<svg width="20" height="21" viewBox="0 0 20 21" fill="none" xmlns="http://www.w3.org/2000/svg">
<path d="M15.4015 14.5244L15.7265 17.1577C15.8098 17.8493 15.0681 18.3327 14.4765 17.9743L10.9848 15.8993C10.6015 15.8993 10.2265 15.8744 9.85981 15.8244C10.4765 15.0994 10.8431 14.1827 10.8431 13.191C10.8431 10.8243 8.79313 8.9077 6.2598 8.9077C5.29313 8.9077 4.40147 9.18268 3.65981 9.66601C3.63481 9.45768 3.62646 9.24934 3.62646 9.03267C3.62646 5.24101 6.91813 2.16602 10.9848 2.16602C15.0515 2.16602 18.3431 5.24101 18.3431 9.03267C18.3431 11.2827 17.1848 13.2744 15.4015 14.5244Z" stroke="#047857" stroke-width="1.5" stroke-linecap="round" stroke-linejoin="round"/>
<path d="M10.8429 13.1915C10.8429 14.1832 10.4763 15.0999 9.85961 15.8249C9.03461 16.8249 7.72627 17.4665 6.2596 17.4665L4.0846 18.7582C3.71794 18.9832 3.25127 18.6748 3.30127 18.2498L3.5096 16.6082C2.39293 15.8332 1.67627 14.5915 1.67627 13.1915C1.67627 11.7248 2.45961 10.4332 3.65961 9.66651C4.40127 9.18318 5.29294 8.9082 6.2596 8.9082C8.79294 8.9082 10.8429 10.8248 10.8429 13.1915Z" stroke="#047857" stroke-width="1.5" stroke-linecap="round" stroke-linejoin="round"/>
</svg>
