<svg width="65" height="64" viewBox="0 0 65 64" fill="none" xmlns="http://www.w3.org/2000/svg">
<rect x="1" y="0.5" width="63" height="63" rx="31.5" fill="white"/>
<rect x="1" y="0.5" width="63" height="63" rx="31.5" stroke="#EEEEEE"/>
<g clip-path="url(#clip0_1064_21221)">
<path d="M19.6765 48.685C19.791 48.7899 20.243 48.6393 20.3654 48.727C20.4735 48.8048 20.3638 49.2284 20.3165 49.2366C10.2136 51.0259 14.4944 40.1648 11.2603 32.8184C10.8814 32.991 10.4688 33.077 10.0525 33.0703C8.36654 33.0702 7 31.7059 7 29.7325C7 29.5863 7.00061 29.5034 7.00061 29.5034C7.01515 29.3997 7.06488 29.382 7.08967 29.2823C7.19588 28.8582 7.3917 28.4618 7.66395 28.1198C7.9362 27.7777 8.27857 27.498 8.668 27.2993C10.2599 26.5324 12.0212 27.1932 13.5506 29.4778C16.3168 33.6098 16.0305 45.3422 19.6765 48.6848V48.685ZM59.3637 28.8357C59.3685 28.8625 59.4083 28.8082 59.4083 28.9532C59.4083 30.6472 58.4999 32.2364 56.5153 32.2364C56.1969 32.2357 55.8813 32.1765 55.5843 32.0618C52.6173 40.0692 57.9509 52.1268 45.8204 48.9747C32.7933 45.5892 25.8902 48.2714 25.8902 48.2714C25.8902 48.2714 25.7415 47.95 25.8902 47.812C26.0371 47.6758 26.5693 47.5837 26.7716 47.4504C28.6975 46.1822 33.0769 45.1053 38.6774 45.2598C45.9235 45.52 50.0962 48.7394 51.1986 41.6774C51.2472 41.4219 51.2908 41.1598 51.3294 40.8911C49.8627 43.1766 46.9074 43.9868 45.6647 41.7895C45.3624 41.2558 45.1282 40.5674 44.9656 39.7862C44.2081 41.4004 42.9127 43.2236 40.9516 43.1142C39.7072 43.0451 39.2999 42.176 39.3454 40.3107C39.3771 39.0092 39.4404 36.534 39.4892 35.2811C39.6268 31.7657 37.5536 32.7496 37.2357 35.2055C37.1086 36.1895 37.01 41.4856 37.2347 43.1671C33.9425 43.6878 33.2657 42.6899 33.2284 40.6283C31.3697 45.5895 28.2604 45.4261 27.3722 42.1234C26.8416 44.3362 25.4173 46.5048 24.0119 46.5048C21.7428 46.5048 19.5034 42.9487 15.807 33.5034C15.7663 33.293 15.7663 33.0768 15.807 32.8665C15.8147 32.8275 16.0096 33.2816 16.0486 33.273C25.3749 31.2056 34.4211 26.0937 34.6813 21.4795C34.2699 21.7156 33.8173 21.871 33.3478 21.9374C31.3042 22.2245 29.4077 20.7591 29.1284 18.7146C29.0817 18.3707 29.0695 18.023 29.092 17.6766C29.0989 17.5998 29.1341 17.6284 29.1341 17.6284C29.2557 16.8385 29.6274 16.1084 30.1946 15.5452C30.7618 14.9821 31.4946 14.6157 32.2855 14.4998C34.2849 14.2297 36.2022 15.8615 36.8174 18.5419C36.906 18.9459 36.963 19.3562 36.988 19.7691C36.988 24.5943 33.2732 30.8239 21.2292 35.597C23.4363 39.5239 24.9687 42.4338 26.2161 41.9329C26.9351 41.6439 27.116 40.2726 26.9306 35.0302L30.6448 32.9148C30.2813 38.9785 31.3932 41.0745 32.4073 40.353C33.2198 39.7749 33.695 37.9735 33.6771 35.1378C33.6329 32.8621 33.4667 31.6097 33.4667 31.6097C35.8446 29.2648 36.9905 29.4719 37.0054 32.4275C38.8257 26.2177 43.3244 27.6149 43.05 33.2592C42.7763 38.9004 43.0778 39.9833 43.5618 39.9833C44.2183 39.9833 45.1257 38.8011 45.0585 37.565C44.9381 34.4285 45.379 30.7897 47.2552 29.1907C49.8795 26.9549 52.068 29.0334 52.8854 30.27C52.9193 30.1803 52.9565 30.093 52.9925 30.0049C54.7741 25.9932 57.0628 26.0927 58.4142 27.1645C58.9121 27.5969 59.2471 28.1866 59.3638 28.8356L59.3637 28.8357ZM52.3055 32.4105C52.0948 31.7104 50.7854 30.2757 49.5116 31.5275C48.0609 32.9529 47.9025 37.3164 48.4754 38.6748C49.0128 39.949 51.0157 39.7496 51.605 38.2071C51.7583 36.2622 51.8862 34.3317 52.3055 32.4105Z" fill="#EB8D00"/>
<path d="M20.3656 48.7276C20.3727 48.7499 20.3639 48.7694 20.3167 48.7777C10.2138 50.5668 14.3076 39.7598 11.3514 32.3183C10.6268 32.6603 9.79669 32.7034 9.04056 32.4383C8.28442 32.1732 7.66296 31.6213 7.31048 30.9017C6.95801 30.1821 6.90284 29.3528 7.15689 28.5929C7.41095 27.833 7.95382 27.2035 8.66819 26.8406C10.2601 26.0735 12.0214 26.7343 13.5508 29.019C16.4803 33.3954 15.9864 46.2964 20.3656 48.7274V48.7276ZM59.4086 28.8848C59.4097 29.3495 59.2986 29.8075 59.0847 30.22C58.8708 30.6325 58.5605 30.9873 58.1801 31.2542C57.7997 31.5211 57.3605 31.6922 56.8998 31.7529C56.4392 31.8137 55.9706 31.7623 55.5341 31.6032C52.7981 39.4627 57.9511 51.6679 45.8206 48.5156C32.7936 45.1304 25.8905 47.8123 25.8905 47.8123C26.8989 46.2342 31.892 44.6137 38.6777 44.8011C45.9238 45.0608 50.0965 48.2807 51.1989 41.2187C51.2475 40.9632 51.2911 40.701 51.3297 40.432C49.8629 42.718 46.9077 43.5279 45.6649 41.3308C45.3627 40.7968 45.1284 40.1088 44.9658 39.3272C44.2083 40.9416 42.913 42.7649 40.9519 42.6552C39.7075 42.5862 39.3003 41.7173 39.3456 39.8518C39.3773 38.5506 39.4407 36.0753 39.4895 34.8225C39.6271 31.3071 37.5538 32.2909 37.236 34.7467C37.1088 35.7304 37.1196 41.1081 37.1802 42.708C33.8881 43.2288 33.3335 42.3046 33.2613 40.0227C31.4027 44.9835 28.2608 44.967 27.3725 41.6647C26.842 43.8775 25.4176 46.0457 24.0122 46.0457C21.7431 46.0457 19.5037 42.3124 15.8074 32.8668C25.2184 30.836 34.4192 25.6317 34.6817 20.9777C34.2049 21.2504 33.6738 21.4146 33.1263 21.4586C32.5788 21.5026 32.0283 21.4252 31.5141 21.2321C30.9999 21.039 30.5346 20.7348 30.1514 20.3412C29.7683 19.9476 29.4766 19.4744 29.2973 18.9552C29.118 18.436 29.0554 17.8837 29.114 17.3375C29.1726 16.7914 29.3509 16.2649 29.6363 15.7955C29.9217 15.3262 30.3071 14.9256 30.7651 14.6223C31.223 14.319 31.7422 14.1205 32.2857 14.0408C34.2852 13.7707 36.2025 15.4025 36.8176 18.0832C36.9308 18.6382 36.988 19.2031 36.9883 19.7695C36.9884 19.9445 36.9832 20.1195 36.9726 20.2944C36.6495 24.2253 33.2736 30.3649 21.2294 35.1383C23.4365 39.065 24.9689 41.9748 26.2163 41.4742C26.9353 41.1852 26.9466 39.802 26.7611 34.5597C28.072 33.6628 29.4706 32.9016 30.9355 32.2875C30.9355 38.4418 31.3934 40.6156 32.4074 39.8944C33.22 39.3163 33.2639 37.5149 33.246 34.6792C33.2019 32.4032 33.1033 31.1198 33.1033 31.1198C35.481 28.7748 37.1011 28.8134 37.1163 31.7691C38.9365 25.5592 43.4896 27.1563 43.2152 32.8007C42.9413 38.4418 43.078 39.5243 43.5619 39.5243C44.2184 39.5243 44.7733 38.3422 44.7061 37.1064H44.7068C44.5864 33.9699 45.3791 30.3308 47.2555 28.7318C49.8796 26.4962 52.0681 28.5749 52.8854 29.8114C52.9193 29.7217 52.9565 29.6341 52.9925 29.5459C54.7741 25.5343 57.0628 25.6339 58.4143 26.7057C58.7264 26.9765 58.9767 27.3112 59.1482 27.6872C59.3197 28.0631 59.4085 28.4716 59.4084 28.8848H59.4086ZM52.3058 31.8084C52.0951 31.1083 50.7857 29.8167 49.5118 31.0685C48.0611 32.4939 47.9027 36.8577 48.4757 38.2161C49.013 39.4901 51.0159 39.2906 51.6052 37.7484C51.7586 35.8036 51.8865 33.7296 52.3058 31.8085V31.8084Z" fill="url(#paint0_linear_1064_21221)"/>
<path d="M44.856 36.9948C44.7634 34.0601 45.4956 30.4317 47.3545 28.8476C48.097 28.2152 48.857 27.8942 49.6132 27.8942C50.9566 27.8942 52.1184 28.9278 52.7577 29.8949L52.9227 30.1448L53.1339 29.6033C54.374 26.8113 55.7598 26.2247 56.7037 26.2247C57.413 26.2247 57.9734 26.5511 58.3189 26.8249C58.8011 27.2444 59.1211 27.8195 59.2235 28.4504C59.3259 29.0812 59.2042 29.728 58.8795 30.2785C58.5548 30.829 58.0476 31.2484 57.4459 31.464C56.8442 31.6795 56.1861 31.6776 55.5857 31.4586L55.44 31.4058L55.389 31.5519C55.0264 32.5942 54.7717 33.7993 54.6115 35.2327C53.7325 35.4538 52.8246 35.6627 51.9084 35.855C52.0191 34.5473 52.1657 33.1652 52.4549 31.8403L52.4633 31.8015L52.4518 31.7635C52.283 31.2022 51.5428 30.3901 50.6459 30.3901C50.2058 30.3901 49.7882 30.5814 49.4044 30.9586C48.2348 32.1079 47.9434 34.883 48.0288 36.5626C46.9949 36.7242 45.929 36.8692 44.8559 36.9947L44.856 36.9948ZM21.4851 35.9066L21.0098 35.0598L21.1727 34.9953C34.6422 29.657 36.6023 22.9267 36.8196 20.2844C36.8639 19.5583 36.813 18.8295 36.6682 18.1166C36.1256 15.7523 34.5376 14.1641 32.7167 14.1641C32.5798 14.1641 32.4432 14.1733 32.3076 14.1916C31.4125 14.3228 30.6001 14.7878 30.0337 15.4932C29.4673 16.1986 29.1888 17.0922 29.254 17.9945C29.3193 18.8968 29.7235 19.741 30.3855 20.3576C31.0475 20.9742 31.9183 21.3174 32.823 21.3185C32.9913 21.3184 33.1595 21.3066 33.3263 21.2833C33.7767 21.2196 34.2108 21.0704 34.6053 20.8437L34.8498 20.7042L34.834 20.9854C34.556 25.9116 24.8844 31.0233 16.0148 32.9774C16.4398 34.0603 16.8461 35.0686 17.2245 35.9785C18.7703 36.2887 20.3667 36.558 21.9752 36.7792C21.8157 36.4962 21.6523 36.2053 21.4851 35.9065L21.4851 35.9066ZM13.4232 29.1034C12.3652 27.523 11.1662 26.6876 9.9558 26.6876C9.53306 26.6906 9.11649 26.7893 8.73739 26.9764C8.05692 27.3199 7.53927 27.9178 7.29665 28.6404C7.05404 29.3631 7.10601 30.1522 7.44131 30.8368C7.7766 31.5213 8.3682 32.0462 9.08785 32.2975C9.8075 32.5488 10.5972 32.5063 11.2858 32.1793L11.4331 32.1099L11.4933 32.2612C11.8125 33.0801 12.0612 33.9248 12.2364 34.7861C13.3023 35.085 14.4006 35.3631 15.5059 35.6133C15.0081 33.0837 14.406 30.5718 13.4232 29.1035V29.1034ZM30.7823 32.5161C29.4308 33.1017 28.1368 33.8118 26.9169 34.6373C26.949 35.5503 26.9807 36.4984 26.9987 37.3191C28.3178 37.4225 29.6541 37.4981 30.9756 37.5442C30.8499 36.3427 30.7866 34.6931 30.7823 32.5161ZM36.9901 37.5612C37.0001 36.49 37.0244 35.1847 37.0839 34.7264C37.2543 33.41 37.9435 32.3786 38.653 32.3786C38.7507 32.3797 38.8471 32.4009 38.9361 32.441C39.0252 32.481 39.1051 32.5391 39.1707 32.6114C39.5211 32.9761 39.6843 33.7423 39.6416 34.8276C39.6195 35.3984 39.5921 36.2811 39.5601 37.4524C40.6693 37.3897 41.7989 37.3045 42.9224 37.1984C42.9203 36.1959 42.9649 34.789 43.0617 32.7925C43.1497 30.9846 42.7314 29.4562 41.9146 28.5984C41.5027 28.1661 41.0161 27.9379 40.5072 27.9379C39.1864 27.9379 37.9735 29.386 37.2624 31.8114C37.2624 31.8114 37.1781 31.9527 37.0793 31.9342C36.9806 31.9153 36.9628 31.7692 36.9628 31.7692C36.9577 30.78 36.7614 29.6007 35.8541 29.6007C35.2143 29.6007 34.3183 30.146 33.2605 31.179C33.2814 31.4797 33.3606 32.7184 33.3987 34.6777C33.4052 35.6935 33.4058 36.7513 33.3433 37.5965C33.6494 37.5996 33.9562 37.6012 34.2636 37.6013C35.1504 37.6013 36.0671 37.5879 36.9898 37.5613L36.9901 37.5612Z" fill="url(#paint1_linear_1064_21221)"/>
</g>
<defs>
<linearGradient id="paint0_linear_1064_21221" x1="33.2044" y1="37.9479" x2="33.2044" y2="46.7363" gradientUnits="userSpaceOnUse">
<stop stop-color="#FFC400"/>
<stop offset="1" stop-color="#FFA400"/>
</linearGradient>
<linearGradient id="paint1_linear_1064_21221" x1="33.2041" y1="21.1114" x2="33.2041" y2="35.2814" gradientUnits="userSpaceOnUse">
<stop stop-color="#FFD400" stop-opacity="0"/>
<stop offset="1" stop-color="#FFD400"/>
</linearGradient>
<clipPath id="clip0_1064_21221">
<rect width="52.4084" height="35.5" fill="white" transform="translate(7 14)"/>
</clipPath>
</defs>
</svg>
