<svg width="20" height="20" viewBox="0 0 20 20" fill="none" xmlns="http://www.w3.org/2000/svg">
<path d="M17.5749 5.81628C16.8665 5.03294 15.6915 4.64128 13.9665 4.64128H13.7665V4.60794C13.7665 3.20794 13.7665 1.47461 10.6332 1.47461H9.36653C6.2332 1.47461 6.2332 3.20794 6.2332 4.60794V4.64128H6.0332C4.3082 4.64128 3.12487 5.03294 2.42487 5.81628C1.59987 6.74128 1.62487 7.96628 1.7082 8.80794L1.71654 8.86628L1.77062 9.49725C1.78381 9.65119 1.86731 9.79056 1.9971 9.87441C2.22344 10.0206 2.46235 10.1723 2.69154 10.2996C2.8082 10.3746 2.9332 10.4413 3.0582 10.5079C3.99987 11.0246 5.0082 11.4329 6.04153 11.7163C6.06653 13.8746 7.8332 15.6246 9.99987 15.6246C12.1832 15.6246 13.9582 13.8496 13.9582 11.6663V11.6329C15.0082 11.3163 16.0165 10.8746 16.9582 10.3246C17.0082 10.2996 17.0415 10.2746 17.0832 10.2496C17.4014 10.0767 17.731 9.85212 18.034 9.63782C18.1504 9.55551 18.2253 9.42691 18.2407 9.2852L18.2915 8.81628C18.2999 8.76628 18.2999 8.72461 18.3082 8.66628C18.3749 7.83294 18.3582 6.68294 17.5749 5.81628ZM7.42487 4.60794C7.42487 3.19128 7.42487 2.65794 9.36653 2.65794H10.6332C12.5749 2.65794 12.5749 3.19128 12.5749 4.60794V4.64128H7.42487V4.60794ZM9.99987 14.3746C8.62487 14.3746 7.4832 13.3413 7.31653 12.0079C7.29987 11.8996 7.29153 11.7829 7.29153 11.6663C7.29153 10.1746 8.5082 8.95794 9.99987 8.95794C11.4915 8.95794 12.7082 10.1746 12.7082 11.6663C12.7082 11.7663 12.6999 11.8579 12.6915 11.9496V11.9579C12.5415 13.3163 11.3915 14.3746 9.99987 14.3746Z" fill="#A0A4A8"/>
<path d="M9.52507 13.3583C9.36673 13.3583 9.2084 13.3 9.0834 13.175L8.2584 12.3583C8.01673 12.1166 8.01673 11.7166 8.2584 11.475C8.50007 11.2333 8.90007 11.2333 9.14173 11.475L9.54173 11.875L10.8834 10.6416C11.1334 10.4083 11.5334 10.425 11.7667 10.675C12.0001 10.925 11.9834 11.325 11.7334 11.5583L9.9584 13.2C9.82507 13.3 9.67507 13.3583 9.52507 13.3583Z" fill="#A0A4A8"/>
<path d="M17.535 11.4426C17.7422 11.3274 18.0111 11.4943 17.9895 11.7304L17.6933 14.9676C17.5183 16.6342 16.835 18.3342 13.1683 18.3342H6.81829C3.15163 18.3342 2.46829 16.6342 2.30163 14.9759L2.0134 11.8898C1.99103 11.6502 2.24728 11.4883 2.45996 11.6009C3.10996 11.9592 3.78496 12.2759 4.47663 12.5259C4.73496 12.6176 4.91829 12.8342 4.99329 13.1009C5.61829 15.2676 7.63496 16.8759 10.0016 16.8759C12.41 16.8759 14.4433 15.2342 15.035 12.9842C15.1016 12.7176 15.285 12.5009 15.5433 12.4009C16.2433 12.1259 16.91 11.8009 17.535 11.4426Z" fill="#A0A4A8"/>
</svg>
