<svg width="23" height="23" viewBox="0 0 23 23" fill="none" xmlns="http://www.w3.org/2000/svg">
<path d="M7.66663 2.38672H15.3336C17.173 2.38677 18.4612 2.84629 19.2926 3.67773C20.124 4.50923 20.5836 5.79724 20.5836 7.63672V12.4287C20.5836 14.2681 20.124 15.5563 19.2926 16.3877C18.4612 17.2191 17.173 17.6787 15.3336 17.6787H14.8541C14.3985 17.6787 13.9643 17.8968 13.6891 18.2588L13.6871 18.2617L12.2496 20.1787C12.014 20.4927 11.7373 20.6113 11.4996 20.6113C11.262 20.6112 10.9852 20.4928 10.7496 20.1787L9.31604 18.2676H9.31702C9.18011 18.0793 8.9831 17.9375 8.79553 17.8438C8.60723 17.7496 8.37727 17.6788 8.14612 17.6787H7.66663C5.7588 17.6787 4.49155 17.4309 3.68323 16.7236C2.89161 16.0308 2.41667 14.781 2.41663 12.4287V7.63672C2.41663 5.79712 2.87615 4.50923 3.70764 3.67773C4.53914 2.84624 5.82703 2.38672 7.66663 2.38672ZM12.8268 6.8457C12.2303 6.65469 11.5839 6.94502 11.3375 7.52637L9.42053 12.002C9.14929 12.6292 9.43922 13.3469 10.0602 13.6084L10.068 13.6113C10.2183 13.6715 10.3774 13.7051 10.5416 13.7051C11.008 13.7051 11.4645 13.4331 11.6627 12.9707L13.5787 8.49512L13.5807 8.49219C13.8386 7.87969 13.5643 7.16747 12.9498 6.89258L12.9459 6.89062L12.8268 6.8457ZM8.52795 7.47461C8.05482 7.00167 7.27843 7.00167 6.8053 7.47461L4.88831 9.3916C4.41533 9.86473 4.41536 10.6411 4.88831 11.1143L6.8053 13.0312C7.04774 13.2736 7.35915 13.3887 7.66663 13.3887C7.9741 13.3887 8.28552 13.2736 8.52795 13.0312C9.00108 12.5581 9.00099 11.7818 8.52795 11.3086L7.47229 10.2529L8.52795 9.19824C9.00113 8.72506 9.00113 7.94779 8.52795 7.47461ZM16.1949 7.47461C15.7219 7.00157 14.9455 7.00178 14.4723 7.47461C13.9991 7.94779 13.9991 8.72506 14.4723 9.19824L15.527 10.2529L14.4723 11.3086C13.9991 11.7818 13.9991 12.5581 14.4723 13.0312C14.7147 13.2735 15.0262 13.3887 15.3336 13.3887C15.641 13.3886 15.9526 13.2736 16.1949 13.0312L18.111 11.1143C18.5841 10.6411 18.5841 9.86478 18.111 9.3916L16.1949 7.47461Z" fill="#047857" stroke="#047857"/>
</svg>
