<svg width="78" height="78" viewBox="0 0 78 78" fill="none" xmlns="http://www.w3.org/2000/svg">
<path d="M75.307 59.2111L43.6015 77.5182L7.89856 56.8556L39.604 38.5527L75.307 59.2111Z" fill="#047857"/>
<path opacity="0.5" d="M75.307 59.2111L43.6015 77.5182L7.89856 56.8556L39.604 38.5527L75.307 59.2111Z" fill="black"/>
<path d="M39.604 13.7383V38.5533L7.89856 56.8561V32.0454L39.604 13.7383Z" fill="#047857"/>
<path opacity="0.23" d="M39.604 13.7383V38.5533L7.89856 56.8561V32.0454L39.604 13.7383Z" fill="black"/>
<path d="M43.6015 52.7033V77.5183L7.89856 56.8556V32.0449L43.6015 52.7033Z" fill="#047857"/>
<path opacity="0.38" d="M43.6015 52.7033V77.5183L7.89856 56.8556V32.0449L43.6015 52.7033Z" fill="black"/>
<path d="M75.307 34.3967V59.2117L39.604 38.5533V13.7383L75.307 34.3967Z" fill="#047857"/>
<path opacity="0.4" d="M75.307 34.3967V59.2117L39.604 38.5533V13.7383L75.307 34.3967Z" fill="black"/>
<path d="M75.3069 59.2115V34.3965L43.6015 52.7036V77.5186L75.3069 59.2115Z" fill="#047857"/>
<path opacity="0.23" d="M75.3069 59.2115V34.3965L43.6015 52.7036V77.5186L75.3069 59.2115Z" fill="black"/>
<path d="M39.604 13.7379L39.647 0L75.264 20.6842L75.307 34.3962L39.604 13.7379Z" fill="#047857"/>
<path opacity="0.2" d="M39.604 13.7379L39.647 0L75.264 20.6842L75.307 34.3962L39.604 13.7379Z" fill="black"/>
<path d="M43.6015 52.7029L46.5761 40.6844L77.9935 22.5449L75.3069 34.3958L43.6015 52.7029Z" fill="#047857"/>
<path opacity="0.3" d="M43.6015 52.7029L46.5761 40.6844L77.9935 22.5449L75.3069 34.3958L43.6015 52.7029Z" fill="black"/>
<path d="M7.89858 32.0437L4.11594 19.5782L35.8214 1.27539L39.604 13.7366L7.89858 32.0437Z" fill="#047857"/>
<path opacity="0.1" d="M7.89858 32.0437L4.11594 19.5782L35.8214 1.27539L39.604 13.7366L7.89858 32.0437Z" fill="black"/>
<path d="M7.89861 32.0456L0.436493 21.7422L36.1438 42.4006L43.6016 52.704L7.89861 32.0456Z" fill="#047857"/>
<path opacity="0.45" d="M7.89861 32.0456L0.436493 21.7422L36.1438 42.4006L43.6016 52.704L7.89861 32.0456Z" fill="black"/>
<g opacity="0.7">
<path d="M52.9378 70.1373C52.8861 70.1373 52.8365 70.1171 52.7995 70.0809C52.7626 70.0447 52.7412 69.9956 52.7401 69.9439V65.5766C52.7412 65.5245 52.7624 65.4749 52.7992 65.438C52.8361 65.4012 52.8857 65.38 52.9378 65.3789C52.9895 65.38 53.0387 65.4014 53.0749 65.4383C53.111 65.4753 53.1313 65.5249 53.1313 65.5766V69.9439C53.1313 69.9952 53.1109 70.0444 53.0746 70.0806C53.0383 70.1169 52.9891 70.1373 52.9378 70.1373Z" fill="white"/>
<path d="M52.3661 67.0897C52.3405 67.0938 52.3144 67.0938 52.2888 67.0897C52.2419 67.0681 52.205 67.0293 52.1858 66.9813C52.1666 66.9334 52.1666 66.8799 52.1856 66.8318L52.882 65.2285L53.6557 66.1226C53.6834 66.1626 53.6953 66.2114 53.6893 66.2597C53.6832 66.308 53.6595 66.3524 53.6228 66.3843C53.5861 66.4162 53.5389 66.4335 53.4902 66.4328C53.4416 66.4321 53.3949 66.4135 53.3591 66.3805L52.9937 65.9507L52.5639 66.9823C52.5453 67.0178 52.5166 67.047 52.4814 67.0661C52.4462 67.0852 52.406 67.0935 52.3661 67.0897Z" fill="white"/>
<path d="M54.7388 69.1096C54.6871 69.1084 54.638 69.0871 54.6018 69.0501C54.5656 69.0132 54.5454 68.9635 54.5454 68.9118V64.5489C54.5454 64.4976 54.5658 64.4484 54.6021 64.4121C54.6383 64.3758 54.6875 64.3555 54.7388 64.3555C54.7901 64.3555 54.8393 64.3758 54.8756 64.4121C54.9119 64.4484 54.9323 64.4976 54.9323 64.5489V68.9075C54.9328 68.9335 54.9283 68.9593 54.9189 68.9835C54.9095 69.0077 54.8954 69.0299 54.8774 69.0486C54.8594 69.0674 54.838 69.0824 54.8142 69.0929C54.7904 69.1033 54.7648 69.109 54.7388 69.1096Z" fill="white"/>
<path d="M54.1672 66.0624C54.1416 66.0664 54.1155 66.0664 54.0898 66.0624C54.0662 66.0522 54.0449 66.0373 54.0271 66.0187C54.0093 66.0002 53.9954 65.9782 53.9862 65.9542C53.977 65.9302 53.9727 65.9046 53.9735 65.8789C53.9743 65.8532 53.9803 65.8279 53.991 65.8045L54.683 64.1797L55.4567 65.0695C55.4924 65.1064 55.5124 65.1557 55.5124 65.207C55.5124 65.2584 55.4924 65.3077 55.4567 65.3446C55.4387 65.3628 55.4173 65.3772 55.3937 65.3871C55.3701 65.3969 55.3448 65.402 55.3192 65.402C55.2936 65.402 55.2683 65.3969 55.2446 65.3871C55.221 65.3772 55.1996 65.3628 55.1816 65.3446L54.8163 64.9147L54.3864 65.9463C54.3686 65.9878 54.3371 66.0219 54.2973 66.043C54.2574 66.0641 54.2115 66.071 54.1672 66.0624Z" fill="white"/>
</g>
<g opacity="0.7">
<path d="M47.7409 73.1006C47.6675 73.1017 47.595 73.0839 47.5303 73.049C47.4526 72.9992 47.3896 72.9295 47.3481 72.8471C47.3065 72.7647 47.2878 72.6726 47.2939 72.5805V72.0432C47.295 71.9915 47.3163 71.9423 47.3533 71.9061C47.3903 71.87 47.4399 71.8497 47.4916 71.8497C47.5429 71.8497 47.5921 71.8701 47.6284 71.9064C47.6647 71.9427 47.6851 71.9919 47.6851 72.0432V72.5805C47.6851 72.6579 47.6851 72.7008 47.7237 72.7094C47.7624 72.718 47.7839 72.7094 47.8484 72.6751C47.9694 72.5633 48.0647 72.4267 48.1278 72.2746C48.1908 72.1224 48.2202 71.9584 48.2138 71.7939V69.5587C48.2138 69.5074 48.2341 69.4582 48.2704 69.4219C48.3067 69.3856 48.3559 69.3652 48.4072 69.3652C48.4585 69.3652 48.5077 69.3856 48.544 69.4219C48.5802 69.4582 48.6006 69.5074 48.6006 69.5587V71.7939C48.6102 72.0259 48.565 72.257 48.4687 72.4683C48.3724 72.6797 48.2276 72.8654 48.0461 73.0103C47.9542 73.0671 47.8489 73.0982 47.7409 73.1006Z" fill="white"/>
<path d="M45.6906 71.2989V70.9636C45.7417 70.1027 45.9934 69.2657 46.4255 68.5194C46.8576 67.773 47.4583 67.1381 48.1794 66.6652C48.8844 66.2611 49.555 66.2009 50.0708 66.5018C50.3459 66.6905 50.5652 66.9496 50.7059 67.2521C50.8466 67.5545 50.9033 67.8893 50.8703 68.2212V68.333L45.6906 71.2989ZM49.3486 66.6824C49.0045 66.6982 48.67 66.8018 48.3772 66.9832C47.7592 67.3899 47.2359 67.9247 46.8428 68.5514C46.4497 69.1781 46.1961 69.8821 46.099 70.6154L50.4705 68.088C50.4892 67.839 50.4432 67.5895 50.337 67.3635C50.2308 67.1376 50.068 66.9429 49.8644 66.7984C49.7056 66.7152 49.5278 66.6752 49.3486 66.6824Z" fill="white"/>
</g>
<path opacity="0.7" d="M0.436493 21.7422L36.1438 42.4006L43.6016 52.704L35.7483 42.7659L0.436493 21.7422Z" fill="white"/>
<path opacity="0.7" d="M75.3069 34.3965L43.6015 52.7036V77.5186L44.1947 53.2022L75.3069 34.3965Z" fill="white"/>
</svg>
