<svg width="25" height="25" viewBox="0 0 25 25" fill="none" xmlns="http://www.w3.org/2000/svg">
<g clip-path="url(#clip0_291_3571)">
<path d="M24.2663 12.8759C24.2663 12.0601 24.2001 11.24 24.059 10.4375H12.7402V15.0585H19.222C18.953 16.5488 18.0888 17.8672 16.8233 18.705V21.7033H20.6903C22.9611 19.6133 24.2663 16.5268 24.2663 12.8759Z" fill="#4285F4"/>
<path d="M12.7401 24.6009C15.9766 24.6009 18.7059 23.5383 20.6945 21.704L16.8276 18.7056C15.7517 19.4376 14.3627 19.8521 12.7445 19.8521C9.61388 19.8521 6.95946 17.74 6.00705 14.9004H2.0166V17.9913C4.05371 22.0435 8.2029 24.6009 12.7401 24.6009Z" fill="#34A853"/>
<path d="M6.00277 14.9003C5.50011 13.41 5.50011 11.7961 6.00277 10.3058V7.21484H2.01674C0.314734 10.6056 0.314734 14.6005 2.01674 17.9913L6.00277 14.9003Z" fill="#FBBC04"/>
<path d="M12.7401 5.34927C14.4509 5.32281 16.1044 5.96658 17.3434 7.14828L20.7695 3.72223C18.6001 1.68511 15.7208 0.565143 12.7401 0.600418C8.2029 0.600418 4.05371 3.15783 2.0166 7.21442L6.00264 10.3054C6.95064 7.46134 9.60947 5.34927 12.7401 5.34927Z" fill="#EA4335"/>
</g>
<defs>
<clipPath id="clip0_291_3571">
<rect width="24" height="24" fill="white" transform="translate(0.5 0.599609)"/>
</clipPath>
</defs>
</svg>
