<svg width="40" height="40" viewBox="0 0 40 40" fill="none" xmlns="http://www.w3.org/2000/svg">
<rect x="0.5" y="0.5" width="39" height="39" rx="19.5" fill="white"/>
<rect x="0.5" y="0.5" width="39" height="39" rx="19.5" stroke="#EEEEEE"/>
<path fill-rule="evenodd" clip-rule="evenodd" d="M18.7862 17.98H21.2622V19.2133C21.6188 18.504 22.5335 17.8667 23.9075 17.8667C26.5415 17.8667 27.1668 19.2787 27.1668 21.8693V26.6673H24.5002V22.4593C24.5002 20.984 24.1435 20.152 23.2355 20.152C21.9762 20.152 21.4528 21.0487 21.4528 22.4587V26.6673H18.7862V17.98ZM14.2135 26.554H16.8802V17.8667H14.2135V26.554ZM17.2622 15.034C17.2623 15.2575 17.2179 15.4788 17.1318 15.685C17.0456 15.8913 16.9193 16.0783 16.7602 16.2353C16.4378 16.5557 16.0014 16.7351 15.5468 16.734C15.0931 16.7337 14.6577 16.5548 14.3348 16.236C14.1763 16.0785 14.0504 15.8912 13.9644 15.6849C13.8784 15.4787 13.8339 15.2575 13.8335 15.034C13.8335 14.5827 14.0135 14.1507 14.3355 13.832C14.6581 13.5128 15.0937 13.3338 15.5475 13.334C16.0022 13.334 16.4382 13.5133 16.7602 13.832C17.0815 14.1507 17.2622 14.5827 17.2622 15.034Z" fill="#121212"/>
</svg>
