<svg width="20" height="20" viewBox="0 0 20 20" fill="none" xmlns="http://www.w3.org/2000/svg">
<path d="M7.91669 11.4575C7.91669 12.2659 8.5417 12.9159 9.30836 12.9159H10.875C11.5417 12.9159 12.0834 12.3492 12.0834 11.6409C12.0834 10.8825 11.75 10.6076 11.2584 10.4326L8.75002 9.55755C8.25835 9.38255 7.92503 9.11588 7.92503 8.34922C7.92503 7.64922 8.46668 7.07422 9.13335 7.07422H10.7C11.4667 7.07422 12.0917 7.72422 12.0917 8.53255" stroke="#282828" stroke-width="1.25" stroke-linecap="round" stroke-linejoin="round"/>
<path d="M10 6.25V13.75" stroke="#282828" stroke-width="1.25" stroke-linecap="round" stroke-linejoin="round"/>
<path d="M18.3334 9.99935C18.3334 14.5993 14.6 18.3327 10 18.3327C5.40002 18.3327 1.66669 14.5993 1.66669 9.99935C1.66669 5.39935 5.40002 1.66602 10 1.66602" stroke="#282828" stroke-width="1.25" stroke-linecap="round" stroke-linejoin="round"/>
<path d="M18.3333 4.99935V1.66602H15" stroke="#282828" stroke-width="1.25" stroke-linecap="round" stroke-linejoin="round"/>
<path d="M14.1667 5.83268L18.3334 1.66602" stroke="#282828" stroke-width="1.25" stroke-linecap="round" stroke-linejoin="round"/>
</svg>
