<svg width="20" height="20" viewBox="0 0 20 20" fill="none" xmlns="http://www.w3.org/2000/svg">
<path d="M13.492 1.66602H6.50866C3.47533 1.66602 1.66699 3.47435 1.66699 6.50768V13.491C1.66699 15.8327 2.74199 17.441 4.63366 18.0493C5.18366 18.241 5.81699 18.3327 6.50866 18.3327H13.492C14.1837 18.3327 14.817 18.241 15.367 18.0493C17.2587 17.441 18.3337 15.8327 18.3337 13.491V6.50768C18.3337 3.47435 16.5253 1.66602 13.492 1.66602ZM17.0837 13.491C17.0837 15.2744 16.3837 16.3993 14.9753 16.866C14.167 15.2743 12.2503 14.141 10.0003 14.141C7.75033 14.141 5.84199 15.266 5.02533 16.866H5.01699C3.62533 16.416 2.91699 15.2827 2.91699 13.4994V6.50768C2.91699 4.15768 4.15866 2.91602 6.50866 2.91602H13.492C15.842 2.91602 17.0837 4.15768 17.0837 6.50768V13.491Z" fill="#047857"/>
<path d="M9.99993 6.66602C8.34993 6.66602 7.0166 7.99935 7.0166 9.64935C7.0166 11.2993 8.34993 12.641 9.99993 12.641C11.6499 12.641 12.9833 11.2993 12.9833 9.64935C12.9833 7.99935 11.6499 6.66602 9.99993 6.66602Z" fill="#047857"/>
</svg>
