<svg width="20" height="20" viewBox="0 0 20 20" fill="none" xmlns="http://www.w3.org/2000/svg">
<path d="M10.0996 10.6497C10.0412 10.6414 9.96624 10.6414 9.89957 10.6497C8.4329 10.5997 7.26624 9.39974 7.26624 7.92474C7.26624 6.41641 8.4829 5.19141 9.99957 5.19141C11.5079 5.19141 12.7329 6.41641 12.7329 7.92474C12.7246 9.39974 11.5662 10.5997 10.0996 10.6497Z" stroke="#282828" stroke-width="1.12504" stroke-linecap="round" stroke-linejoin="round"/>
<path d="M15.6167 16.1508C14.1334 17.5091 12.1667 18.3341 10 18.3341C7.83336 18.3341 5.8667 17.5091 4.38336 16.1508C4.4667 15.3674 4.9667 14.6008 5.85836 14.0008C8.1417 12.4841 11.875 12.4841 14.1417 14.0008C15.0334 14.6008 15.5334 15.3674 15.6167 16.1508Z" stroke="#282828" stroke-width="1.12504" stroke-linecap="round" stroke-linejoin="round"/>
<path d="M10 18.3327C14.6024 18.3327 18.3334 14.6017 18.3334 9.99935C18.3334 5.39698 14.6024 1.66602 10 1.66602C5.39765 1.66602 1.66669 5.39698 1.66669 9.99935C1.66669 14.6017 5.39765 18.3327 10 18.3327Z" stroke="#282828" stroke-width="1.12504" stroke-linecap="round" stroke-linejoin="round"/>
</svg>
