<svg width="23" height="23" viewBox="0 0 23 23" fill="none" xmlns="http://www.w3.org/2000/svg">
<path d="M13.5977 3.50488C13.9126 2.97581 14.5866 2.80056 15.0967 3.10352V3.10449L15.1045 3.1084L16.7627 4.05762C17.392 4.41735 17.6102 5.22171 17.248 5.85645C16.7638 6.70113 16.6592 7.58289 17.0654 8.28516C17.4719 8.98762 18.2886 9.33688 19.2627 9.33691C19.9885 9.33691 20.5841 9.93252 20.5938 10.6572H20.5928V12.3438C20.5928 13.0721 19.9947 13.665 19.2725 13.665C18.2986 13.665 17.4815 14.0134 17.0762 14.7168C16.671 15.42 16.7788 16.3015 17.2676 17.1455V17.1465C17.6279 17.7702 17.4124 18.5841 16.7822 18.9443H16.7812L15.124 19.8926L15.1162 19.8975C14.6075 20.2 13.9352 20.0268 13.6191 19.501H13.6201L13.5146 19.3193L13.4199 19.1641C12.9357 18.4102 12.2627 17.9416 11.502 17.9414C10.6901 17.9414 9.98065 18.4751 9.49609 19.3193L9.39355 19.4961C9.07856 20.0255 8.40374 20.201 7.89355 19.8975L7.88672 19.8926L6.22852 18.9443C5.59955 18.5849 5.38126 17.781 5.74219 17.1465C6.2314 16.3023 6.33978 15.4202 5.93457 14.7168C5.52926 14.0135 4.7119 13.6651 3.73828 13.665C3.00988 13.665 2.41699 13.066 2.41699 12.3438V10.6572C2.41706 9.92889 3.01609 9.33691 3.73828 9.33691C4.71182 9.33681 5.52919 8.98789 5.93457 8.28613C6.31482 7.62749 6.24344 6.81215 5.8291 6.02051L5.74121 5.86328C5.40332 5.26764 5.57564 4.51689 6.11523 4.12988L6.22852 4.05762L7.88672 3.1084L7.89355 3.10449C8.40688 2.7991 9.07451 2.97994 9.36914 3.49707L9.37109 3.5L9.47656 3.68164V3.68262C9.96579 4.52661 10.6777 5.05944 11.4893 5.05957C12.3016 5.05957 13.0115 4.52575 13.4961 3.68066L13.4951 3.67969L13.5977 3.50488ZM11.5 7.88574C9.50859 7.88592 7.88574 9.50953 7.88574 11.501C7.8859 13.4923 9.50868 15.1151 11.5 15.1152C13.4915 15.1152 15.1151 13.4924 15.1152 11.501C15.1152 9.50942 13.4916 7.88574 11.5 7.88574Z" fill="#047857" stroke="#047857"/>
</svg>
