<svg width="36" height="36" viewBox="0 0 36 36" fill="none" xmlns="http://www.w3.org/2000/svg">
<path d="M28.6476 15.9574C22.8455 12.5116 13.2749 12.1948 7.73595 13.8759C6.84645 14.1459 5.90582 13.6435 5.63639 12.7543C5.36678 11.8642 5.86838 10.9243 6.75854 10.6539C13.1168 8.72391 23.6865 9.09662 30.3661 13.0617C31.1661 13.5367 31.4286 14.5699 30.9544 15.3686C30.4798 16.1686 29.4457 16.4323 28.6476 15.9574ZM28.4576 21.061C28.0505 21.7216 27.1869 21.9288 26.5272 21.5231C21.6899 18.5497 14.3138 17.6883 8.59093 19.4255C7.8488 19.6498 7.06492 19.2313 6.83949 18.4906C6.61588 17.7485 7.03453 16.966 7.77533 16.7403C14.3129 14.7565 22.4401 15.7174 27.9959 19.1316C28.6556 19.5379 28.8632 20.402 28.4576 21.061ZM26.2551 25.9624C25.9316 26.4929 25.241 26.659 24.7125 26.3357C20.4855 23.7523 15.1653 23.169 8.89966 24.6C8.29588 24.7385 7.69413 24.3601 7.55643 23.7564C7.41814 23.1528 7.79506 22.551 8.40017 22.4132C15.2568 20.8457 21.1384 21.5204 25.8828 24.4195C26.4118 24.7426 26.5784 25.4336 26.2551 25.9624ZM18.0001 3.8147e-06C8.05904 3.8147e-06 0 8.05888 0 17.9997C0 27.9418 8.05904 36 18.0001 36C27.9413 36 36 27.9418 36 17.9997C36 8.05888 27.9413 3.8147e-06 18.0001 3.8147e-06Z" fill="#1ED760"/>
</svg>
