<svg width="20" height="20" viewBox="0 0 20 20" fill="none" xmlns="http://www.w3.org/2000/svg">
<path d="M15.0833 14.791H4.91666C2.98333 14.791 1.875 13.6827 1.875 11.7494V1.66602C1.875 1.32435 2.15833 1.04102 2.5 1.04102H17.5C17.8417 1.04102 18.125 1.32435 18.125 1.66602V11.7494C18.125 13.6827 17.0167 14.791 15.0833 14.791ZM3.125 2.29102V11.7494C3.125 12.991 3.67499 13.541 4.91666 13.541H15.075C16.3167 13.541 16.8667 12.991 16.8667 11.7494V2.29102H3.125Z" fill="#282828"/>
<path d="M18.3334 2.29102H1.66669C1.32502 2.29102 1.04169 2.00768 1.04169 1.66602C1.04169 1.32435 1.32502 1.04102 1.66669 1.04102H18.3334C18.675 1.04102 18.9584 1.32435 18.9584 1.66602C18.9584 2.00768 18.675 2.29102 18.3334 2.29102Z" fill="#282828"/>
<path d="M6.66689 18.9577C6.43355 18.9577 6.21688 18.8327 6.10854 18.616C5.95021 18.3077 6.07523 17.9327 6.3919 17.7743L9.37522 16.2827V14.166C9.37522 13.8243 9.65855 13.541 10.0002 13.541C10.3419 13.541 10.6252 13.8243 10.6252 14.166V16.666C10.6252 16.8993 10.4919 17.116 10.2752 17.2244L6.94188 18.891C6.85854 18.9327 6.75855 18.9577 6.66689 18.9577Z" fill="#282828"/>
<path d="M13.3333 18.9588C13.2416 18.9588 13.1416 18.9338 13.0583 18.8921L9.72495 17.2255C9.41662 17.0671 9.29159 16.6921 9.44159 16.3838C9.59993 16.0755 9.97493 15.9505 10.2833 16.1005L13.6166 17.7671C13.9249 17.9255 14.0499 18.3005 13.8999 18.6088C13.7833 18.8338 13.5583 18.9588 13.3333 18.9588Z" fill="#282828"/>
<path d="M6.24992 9.79157C6.07492 9.79157 5.8916 9.71658 5.7666 9.56658C5.5416 9.29991 5.58324 8.90824 5.84991 8.68324L8.47493 6.49157C8.7166 6.29157 9.02491 6.20824 9.31658 6.25824C9.61658 6.30824 9.87493 6.49155 10.0333 6.75822L10.9082 8.21655L13.3499 6.18324C13.6166 5.96658 14.0082 5.99989 14.2332 6.26656C14.4582 6.53322 14.4166 6.92489 14.1499 7.14989L11.5249 9.34156C11.2832 9.54156 10.9749 9.62489 10.6833 9.57489C10.3833 9.52489 10.1249 9.34158 9.96658 9.07491L9.09159 7.61658L6.64993 9.64989C6.53326 9.74155 6.39158 9.79157 6.24992 9.79157Z" fill="#282828"/>
</svg>
