<svg width="17" height="17" viewBox="0 0 17 17" fill="none" xmlns="http://www.w3.org/2000/svg">
<path d="M10.9012 3.68977L11.9 5.68726C12.0345 5.96351 12.3958 6.22559 12.7004 6.28226L14.5066 6.57976C15.6612 6.77101 15.9304 7.60684 15.1016 8.44268L13.692 9.85226C13.4583 10.086 13.3237 10.5464 13.4016 10.8793L13.8054 12.6218C14.1241 13.996 13.3875 14.5343 12.1762 13.8118L10.4833 12.806C10.1787 12.6218 9.66872 12.6218 9.36413 12.806L7.67121 13.8118C6.45996 14.5273 5.7233 13.996 6.04205 12.6218L6.4458 10.8793C6.52372 10.5535 6.38913 10.0931 6.15538 9.85226L4.74581 8.44268C3.91706 7.61393 4.18622 6.77809 5.3408 6.57976L7.14705 6.28226C7.45163 6.23267 7.81288 5.96351 7.94747 5.68726L8.94622 3.68977C9.47747 2.60602 10.3558 2.60602 10.9012 3.68977Z" stroke="#047857" stroke-width="1.54545" stroke-linecap="round" stroke-linejoin="round"/>
<path d="M5.66663 3.54102H1.41663" stroke="#047857" stroke-width="1.54545" stroke-linecap="round" stroke-linejoin="round"/>
<path d="M3.54163 13.459H1.41663" stroke="#047857" stroke-width="1.54545" stroke-linecap="round" stroke-linejoin="round"/>
<path d="M2.12496 8.5H1.41663" stroke="#047857" stroke-width="2.31818" stroke-linecap="round" stroke-linejoin="round"/>
</svg>
