<svg width="18" height="17" viewBox="0 0 18 17" fill="none" xmlns="http://www.w3.org/2000/svg">
<path d="M9.74045 0.932395L17.8854 15.2027C17.9605 15.3342 18 15.4833 18 15.6351C18 15.7869 17.9605 15.9361 17.8855 16.0676C17.8104 16.199 17.7025 16.3082 17.5725 16.3841C17.4425 16.46 17.2951 16.5 17.145 16.5H0.855006C0.704919 16.5 0.557477 16.46 0.4275 16.3841C0.297522 16.3082 0.189588 16.199 0.114547 16.0676C0.0395048 15.9361 -9.53211e-07 15.7869 0 15.6351C9.53246e-07 15.4833 0.0395086 15.3342 0.114552 15.2027L8.25955 0.932395C8.33459 0.800929 8.44253 0.69176 8.5725 0.615859C8.70248 0.539958 8.84992 0.5 9 0.5C9.15008 0.5 9.29752 0.539958 9.4275 0.615859C9.55747 0.69176 9.66541 0.800929 9.74045 0.932395ZM8.14497 12.1757V13.9054H9.85503V12.1757H8.14497ZM8.14497 6.1216V10.4459H9.85503V6.1216H8.14497Z" fill="#D3931C"/>
</svg>
