<svg width="40" height="40" viewBox="0 0 40 40" fill="none" xmlns="http://www.w3.org/2000/svg">
<rect x="0.5" y="0.5" width="39" height="39" rx="19.5" fill="white"/>
<rect x="0.5" y="0.5" width="39" height="39" rx="19.5" stroke="#EEEEEE"/>
<path d="M13 17.5H27M13 22.5H27M12.5 20C12.5 20.9849 12.694 21.9602 13.0709 22.8701C13.4478 23.7801 14.0003 24.6069 14.6967 25.3033C15.3931 25.9997 16.2199 26.5522 17.1299 26.9291C18.0398 27.306 19.0151 27.5 20 27.5C20.9849 27.5 21.9602 27.306 22.8701 26.9291C23.7801 26.5522 24.6069 25.9997 25.3033 25.3033C25.9997 24.6069 26.5522 23.7801 26.9291 22.8701C27.306 21.9602 27.5 20.9849 27.5 20C27.5 18.0109 26.7098 16.1032 25.3033 14.6967C23.8968 13.2902 21.9891 12.5 20 12.5C18.0109 12.5 16.1032 13.2902 14.6967 14.6967C13.2902 16.1032 12.5 18.0109 12.5 20Z" stroke="black" stroke-width="0.909091" stroke-linecap="round" stroke-linejoin="round"/>
<path d="M19.5832 12.5C18.1793 14.7497 17.4351 17.3482 17.4351 20C17.4351 22.6518 18.1793 25.2503 19.5832 27.5M20.4166 12.5C21.8204 14.7497 22.5647 17.3482 22.5647 20C22.5647 22.6518 21.8204 25.2503 20.4166 27.5" stroke="black" stroke-width="0.909091" stroke-linecap="round" stroke-linejoin="round"/>
</svg>
